<?xml version="1.0" encoding="UTF-8"?>
<svg xmlns="http://www.w3.org/2000/svg" viewBox="0 0 327.12 406.69">
  <defs>
    <style>
      .cls-1 {
        fill: #fff;
      }

      .cls-2 {
        fill: #55ff38;
      }

      .cls-3 {
        fill: #006a26;
      }

      .cls-4 {
        fill: #d9152f;
      }

      .cls-5 {
        fill: #ef2b1f;
      }

      .cls-6 {
        fill: #553b00;
      }
    </style>
  </defs>
  <g id="apple_body" data-name="apple body">
    <path class="cls-4" d="M211.57,406.69c-10.84,0-18.6-.96-26.82-1.98-4.64-.58-9.44-1.17-15.16-1.64-1.76-.14-3.74-.22-5.89-.22-7.08,0-15.22.78-23.09,1.53-8.09.77-15.73,1.5-22.68,1.5C47.04,405.89,0,314.27,0,253.66,0,169.67,73.38,101.34,163.57,101.34s163.54,68.34,163.54,152.33c0,51.69-34.89,153.02-115.55,153.02ZM163.71,382.86c2.72,0,5.18.09,7.51.28,6.14.5,11.15,1.12,16,1.72,7.92.98,14.75,1.83,24.36,1.83,68.05,0,95.54-93.88,95.54-133.02,0-72.96-64.39-132.33-143.55-132.33S20,180.7,20,253.66c0,26.62,11.08,60.54,28.24,86.42,11.34,17.11,35.46,45.8,69.7,45.8,6,0,13.18-.69,20.78-1.41,8.33-.79,16.96-1.62,24.99-1.62Z"/>
    <path class="cls-5" d="M163.7,387.95c2.66,0,5.06.09,7.33.27,5.99.49,10.89,1.09,15.62,1.68,7.73.96,14.41,1.79,23.79,1.79,66.46,0,93.3-91.67,93.3-129.9,0-71.25-62.88-129.22-140.18-129.22S23.37,190.53,23.37,261.79c0,25.99,10.82,59.12,27.57,84.39,11.07,16.7,34.63,44.73,68.06,44.73,5.86,0,12.87-.67,20.29-1.38,8.14-.78,16.56-1.58,24.4-1.58Z"/>
    <path class="cls-4" d="M158.29,186.43c-1.3,0-2.59-.05-3.89-.14-27.03-1.96-43.79-24.05-44.49-24.99-3.3-4.43-2.39-10.69,2.04-14,4.42-3.29,10.66-2.39,13.97,2.01.25.32,12.33,15.83,30.08,17.04,12.22.83,24.9-5.26,37.74-18.1,3.91-3.9,10.24-3.9,14.15,0,3.91,3.91,3.91,10.24,0,14.15-15.97,15.97-32.63,24.04-49.6,24.04Z"/>
    <circle class="cls-1" cx="261.81" cy="207.8" r="12.25"/>
    <circle class="cls-1" cx="276.82" cy="237.52" r="8.01"/>
  </g>
  <g id="stem">
    <path class="cls-6" d="M157.33,174.1c-3.54,0-6.97-1.89-8.78-5.22-.37-.69-9.14-17.08-10.54-40.72-1.3-21.82,3.58-54.33,34.17-85.24,3.89-3.93,10.22-3.96,14.15-.07,3.93,3.88,3.96,10.22.07,14.14-48.07,48.58-21.41,100.21-20.25,102.38,2.59,4.86.77,10.92-4.08,13.53-1.51.81-3.14,1.2-4.74,1.2Z"/>
  </g>
  <g id="leaf">
    <path class="cls-2" d="M117.97,107.11c-15.53,2.61-30.12-.96-41.07-10.04-15.35-12.73-21.15-34.69-15.12-57.29l.77-2.9,2.7-1.3c5.88-2.81,11.94-4.76,18.03-5.78,15.53-2.61,30.12.96,41.07,10.04,15.35,12.73,21.15,34.69,15.12,57.29l-.77,2.9-2.7,1.3c-5.88,2.81-11.94,4.76-18.03,5.78Z"/>
    <path class="cls-3" d="M116.73,120.06c-23.87,4.01-46.28-1.47-63.1-15.42C30.03,85.07,21.14,51.34,30.4,16.61l1.19-4.45,4.16-1.99c9.03-4.32,18.35-7.32,27.7-8.89,23.87-4.01,46.28,1.47,63.1,15.42,23.59,19.56,32.49,53.29,23.23,88.03l-1.19,4.45-4.16,1.99c-9.03,4.32-18.35,7.31-27.7,8.89ZM48.64,26.3c-5.39,25.42,1.23,49.23,17.75,62.94,12.28,10.18,28.98,14.12,47.02,11.09,6.06-1.02,12.14-2.79,18.12-5.29,5.39-25.43-1.22-49.23-17.75-62.94-12.28-10.18-28.98-14.12-47.02-11.09-6.06,1.01-12.13,2.79-18.12,5.29Z"/>
  </g>
</svg>