<?xml version="1.0" encoding="UTF-8"?>
<svg xmlns="http://www.w3.org/2000/svg" viewBox="0 0 368.8 380">
  <defs>
    <style>
      .cls-1 {
        fill: #1900e7;
      }

      .cls-2 {
        stroke-width: 11px;
      }

      .cls-2, .cls-3 {
        stroke: #00af00;
      }

      .cls-2, .cls-3, .cls-4 {
        fill: none;
        stroke-miterlimit: 10;
      }

      .cls-3 {
        stroke-width: 10.43px;
      }

      .cls-5 {
        fill: #75af00;
      }

      .cls-4 {
        stroke: #00004d;
        stroke-width: 14px;
      }

      .cls-6 {
        fill: #00003b;
      }

      .cls-7 {
        fill: #1987e7;
      }
    </style>
  </defs>
  <g id="leaves">
    <path class="cls-5" d="M258.98,190.56c83.13-40.84,68.82-164.37,68.82-164.37-87.5-16.93-148.71,73.3-148.71,73.3l79.9,91.07Z"/>
    <path class="cls-5" d="M150.9,189.89C68.85,151.18,76.4,27.45,76.4,27.45c83.34-19.09,146.79,69.49,146.79,69.49l-72.29,92.94Z"/>
    <path class="cls-3" d="M134.13,170.35C52.08,131.64,59.63,7.91,59.63,7.91c83.34-19.09,146.79,69.49,146.79,69.49l-72.29,92.94Z"/>
    <path class="cls-2" d="M279.53,177.79c83.13-40.84,68.82-164.37,68.82-164.37C260.85-3.51,199.63,86.72,199.63,86.72l79.9,91.07Z"/>
  </g>
  <g id="top_berry" data-name="top berry">
    <circle class="cls-1" cx="201.67" cy="173.58" r="99.71"/>
    <circle class="cls-4" cx="201.67" cy="173.58" r="99.71"/>
    <circle class="cls-7" cx="179.08" cy="177.79" r="70.6"/>
    <path class="cls-6" d="M210.53,107.32h-25.32c-7.6,0-12.66,2.54-12.66,6.34s5.06,6.34,12.66,6.34h25.32c7.6,0,12.66-2.54,12.66-6.34s-5.06-6.34-12.66-6.34Z"/>
  </g>
  <g id="right_berry" data-name="right berry">
    <circle class="cls-1" cx="262.09" cy="273.29" r="99.71"/>
    <circle class="cls-7" cx="274.46" cy="302.4" r="70.6"/>
    <circle class="cls-4" cx="262.09" cy="273.29" r="99.71"/>
    <path class="cls-6" d="M300.26,327.91c-1.47-3.39-7.89-5.76-15.32-4.58l-26.01,4.47c-7.44,1.18-12.16,5.66-9.44,8.97,1.47,3.39,6.59,5.15,12.83,4.74l2.49-.16,26.01-4.47c6.19-1.1,10.95-4.89,9.44-8.97Z"/>
  </g>
  <g id="left_berry" data-name="left berry">
    <circle class="cls-1" cx="106.71" cy="257.99" r="99.71"/>
    <circle class="cls-7" cx="84.24" cy="276.89" r="70.6"/>
    <circle class="cls-4" cx="106.71" cy="257.99" r="99.71"/>
    <g>
      <path class="cls-6" d="M78.81,234.72c-4.12,11.99-16.14,27.12-28.77,30.47,2.61-12.78,17.03-25.67,28.77-30.47h0Z"/>
      <path class="cls-6" d="M50.04,234.72c6.13,3.99,11.39,8.88,16.44,14.06,5.07,5.28,9.76,10.67,12.33,17.77-6.81-3.27-11.7-8.48-16.44-14.06-4.64-5.55-8.98-11.27-12.33-17.77h0Z"/>
    </g>
  </g>
</svg>