<?xml version="1.0" encoding="UTF-8"?>
<svg id="lemon" xmlns="http://www.w3.org/2000/svg" viewBox="0 0 529.3 531.89">
  <defs>
    <style>
      .cls-1 {
        fill: none;
        stroke: #ffe917;
        stroke-linecap: round;
        stroke-linejoin: round;
        stroke-width: 21.84px;
      }

      .cls-2 {
        fill: #ffff35;
      }

      .cls-3 {
        fill: #ffffa3;
      }

      .cls-4 {
        fill: #553b00;
      }
    </style>
  </defs>
  <path class="cls-2" d="M484.38,47.51c-19.66-19.66-50.24-26.21-74.27-19.66-15.29,4.37-30.58,2.18-43.69-2.18C274.68-7.1,167.65,14.74,91.2,91.2,14.74,167.65-7.1,274.68,25.67,364.24c4.37,13.11,6.55,30.58,2.18,43.69-6.55,26.21,0,56.79,19.66,76.45s50.24,26.21,74.27,19.66c15.29-4.37,30.58-2.18,43.69,2.18,89.56,32.77,198.78,10.92,273.04-65.53,74.27-76.45,98.3-183.49,65.53-273.04-4.37-13.11-6.55-30.58-2.18-43.69,8.74-26.21,2.18-56.79-17.47-76.45Z"/>
  <ellipse class="cls-3" cx="261.48" cy="366.02" rx="189.88" ry="155.36"/>
  <path class="cls-1" d="M484.38,47.51c-19.66-19.66-50.24-26.21-74.27-19.66-15.29,4.37-30.58,2.18-43.69-2.18C274.68-7.1,167.65,14.74,91.2,91.2,14.74,167.65-7.1,274.68,25.67,364.24c4.37,13.11,6.55,30.58,2.18,43.69-6.55,26.21,0,56.79,19.66,76.45s50.24,26.21,74.27,19.66c15.29-4.37,30.58-2.18,43.69,2.18,89.56,32.77,198.78,10.92,273.04-65.53,74.27-76.45,98.3-183.49,65.53-273.04-4.37-13.11-6.55-30.58-2.18-43.69,8.74-26.21,2.18-56.79-17.47-76.45Z"/>
  <circle class="cls-4" cx="199.3" cy="105.02" r="7.46"/>
  <circle class="cls-4" cx="165.48" cy="133.58" r="7.46"/>
  <circle class="cls-4" cx="201.74" cy="65.16" r="7.46"/>
  <circle class="cls-4" cx="234.93" cy="112.48" r="7.46"/>
  <circle class="cls-4" cx="150.57" cy="97.56" r="7.46"/>
  <circle class="cls-4" cx="248.03" cy="74.86" r="7.46"/>
  <circle class="cls-4" cx="126.67" cy="150.1" r="7.46"/>
  <circle class="cls-4" cx="180.39" cy="158.09" r="7.46"/>
</svg>