<?xml version="1.0" encoding="UTF-8"?>
<svg xmlns="http://www.w3.org/2000/svg" viewBox="0 0 485.23 383.53">
  <defs>
    <style>
      .cls-1 {
        stroke-width: 9.63px;
      }

      .cls-1, .cls-2 {
        fill: none;
        stroke: #ffab3f;
        stroke-miterlimit: 10;
      }

      .cls-3 {
        fill: #ffcb15;
      }

      .cls-2 {
        stroke-width: 11px;
      }

      .cls-4 {
        fill: #ffffa3;
      }
    </style>
  </defs>
  <g id="right_orange" data-name="right orange">
    <circle class="cls-3" cx="337.66" cy="235.89" r="142.83"/>
    <circle class="cls-1" cx="336.88" cy="235.19" r="143.53"/>
    <path class="cls-4" d="M345.8,108.22v115.9l81.95-81.95c-21.69-20.12-50.33-32.76-81.95-33.95Z"/>
    <path class="cls-4" d="M336.03,363.56v-115.89l-81.95,81.95c21.68,20.13,50.33,32.77,81.95,33.94Z"/>
    <path class="cls-4" d="M468.58,231.04c-1.19-31.65-13.81-60.27-33.94-81.98l-81.98,81.98h115.92Z"/>
    <path class="cls-4" d="M345.8,363.56c31.62-1.18,60.26-13.8,81.95-33.94l-81.95-81.95v115.89Z"/>
    <path class="cls-4" d="M434.65,322.76c20.1-21.72,32.75-50.34,33.94-81.98h-115.89l81.95,81.98Z"/>
  </g>
  <g id="left_orange" data-name="left orange">
    <circle class="cls-3" cx="170.65" cy="168.68" r="163.35"/>
    <circle class="cls-2" cx="169.36" cy="169.36" r="163.86"/>
    <path class="cls-4" d="M21.57,175.02c1.39,36.61,16,69.75,39.27,94.87l94.88-94.87H21.57Z"/>
    <path class="cls-4" d="M175.02,21.58v134.15l94.88-94.86c-25.11-23.28-58.27-37.92-94.88-39.28Z"/>
    <path class="cls-4" d="M60.84,68.84c-23.27,25.13-37.9,58.27-39.27,94.88h134.17L60.84,68.84Z"/>
    <path class="cls-4" d="M163.74,155.72V21.57c-36.63,1.38-69.76,16-94.9,39.28l94.9,94.88Z"/>
    <path class="cls-4" d="M163.74,317.16v-134.18l-94.89,94.9c25.11,23.28,58.26,37.92,94.89,39.28Z"/>
    <path class="cls-4" d="M317.15,163.73c-1.37-36.61-15.97-69.77-39.28-94.88l-94.87,94.88h134.15Z"/>
    <path class="cls-4" d="M175.02,317.16c36.62-1.37,69.77-16,94.88-39.28l-94.88-94.87v134.15h0Z"/>
    <path class="cls-4" d="M183.01,175.02l94.85,94.87c23.31-25.12,37.92-58.26,39.28-94.87h-134.14Z"/>
  </g>
</svg>