<?xml version="1.0" encoding="UTF-8"?>
<svg xmlns="http://www.w3.org/2000/svg" viewBox="0 0 405.27 423.09">
  <defs>
    <style>
      .cls-1 {
        fill: #ffcb15;
      }

      .cls-2 {
        fill: #e0ff2a;
      }

      .cls-3 {
        fill: #947000;
      }

      .cls-4 {
        fill: #fff155;
      }

      .cls-5 {
        fill: #7dc35e;
      }
    </style>
  </defs>
  <g id="peach_body" data-name="peach body">
    <circle class="cls-1" cx="151.59" cy="273.1" r="129.7"/>
    <path class="cls-4" d="M302.74,245.54c21.54,100.44-66.61,189.5-167.42,176.23C41.79,409.88-19.78,316.82,5.83,226.13c4.54-16.03,11.8-31.39,21.27-45.08,36.48-54.69,111.26-79.21,171.68-55.04-59.87-12.98-124.71,13.31-155.4,65.63-47.85,79.4-5.55,182.15,84.87,203.62,74.68,17.66,148.85-29.92,167.19-103.91,1.82-7.23,3.2-14.96,3.85-22.39.87-7.56.8-15.31.55-23.04,0,0,2.9-.38,2.9-.38h0Z"/>
  </g>
  <g id="leaf">
    <path class="cls-2" d="M372.56,26.09s41.48,53.83-1.26,90.27c-42.74,36.43-106.84,7.78-106.84,7.78,0,0-7.8-46.81,31.91-68.76,31.3-17.3,53.53-3.95,76.19-29.29Z"/>
    <path class="cls-5" d="M383.4,0c15.72,21.18,25.19,48.52,20.79,75.12-1.8,9.98-5.63,19.78-11.38,28.15-1.21,1.97-3.43,4.71-4.86,6.56-30.55,36.65-80.37,39.16-121.47,19.73-1.89-.81-4.1-2.2-5.99-3.21,0,0-.12-2.19-.12-2.19-.64-4.22-.8-8.3-.84-12.53.01-24.95,8.53-50.76,27.17-67.98,12.29-11.28,28.04-18.4,44.33-21.32,22.56-3.71,35.73-4.36,52.38-22.33h0ZM383.4,0c-19.49,30.07-45.05,22.42-71.93,37.49-30.6,16.22-42.43,49.89-42.24,82.93,0,.91.03,1.92.06,2.7,0,0-2.49-3.52-2.49-3.52,22.33,7.86,47.12,11.69,70.36,6.37,19.28-4.31,36.78-16.13,48.02-32.37,19.01-28,12-64.76-1.77-93.61h0Z"/>
  </g>
  <g id="stem">
    <path class="cls-3" d="M219.8,11.23c44.47,44.92,56.09,113.32,32.56,171.52-10.97,26.68-24.25,53.1-45.19,73.49-4.6,4.5-10.05,8.63-15.59,11.87-4.16,2.16-9.13,4.41-13.82,4.92-1.5.21-3.31.33-4.81.06,3.12-.62,5.86-2.09,8.45-3.64,2.17-1.37,5.22-3.83,7.18-5.55,4.32-4.07,8.43-8.78,11.92-13.61,10.63-14.61,18.98-31.35,26.24-47.93,2.45-5.64,4.93-11.24,7.09-17,2.09-4.92,4.78-12.04,6.5-17.01.47-1.21,1.06-2.99,1.39-4.25.69-2.52,1.83-6.1,2.47-8.6,7-27.67,7.1-56.9.55-84.72-4.97-21.06-13.74-40.88-24.95-59.56h0Z"/>
  </g>
</svg>