<?xml version="1.0" encoding="UTF-8"?>
<svg xmlns="http://www.w3.org/2000/svg" viewBox="0 0 366 298.38">
  <defs>
    <style>
      .cls-1 {
        fill: #00af00;
      }

      .cls-2 {
        fill: #ff372f;
      }

      .cls-3 {
        stroke: #00833f;
        stroke-width: 8px;
      }

      .cls-3, .cls-4, .cls-5 {
        fill: none;
        stroke-miterlimit: 10;
      }

      .cls-4 {
        stroke: #ff152f;
        stroke-width: 7px;
      }

      .cls-6 {
        fill: #ffffa3;
      }

      .cls-5 {
        stroke: #ffff73;
        stroke-width: 8.75px;
      }
    </style>
  </defs>
  <g id="watermelon_green_" data-name="watermelon (green_">
    <path class="cls-1" d="M333.28,7.3c-.88-1.51-2.32-2.62-4.01-3.07-1.68-.46-3.49-.22-5.01.66l-40,23.09L44.3,166.53l-40,23.09c-3.16,1.82-4.24,5.86-2.42,9.01,25.55,44.26,66.81,75.92,116.18,89.15,16.48,4.42,33.21,6.6,49.83,6.6,33.15,0,65.87-8.69,95.35-25.71,44.26-25.55,75.92-66.81,89.15-116.18,13.23-49.37,6.44-100.93-19.11-145.19Z"/>
    <path class="cls-3" d="M336.28,7.3c-.88-1.51-2.32-2.62-4.01-3.07-1.68-.46-3.49-.22-5.01.66l-40,23.09L47.3,166.53l-40,23.09c-3.16,1.82-4.24,5.86-2.42,9.01,25.55,44.26,66.81,75.92,116.18,89.15,16.48,4.42,33.21,6.6,49.83,6.6,33.15,0,65.87-8.69,95.35-25.71,44.26-25.55,75.92-66.81,89.15-116.18,13.23-49.37,6.44-100.93-19.11-145.19Z"/>
  </g>
  <g id="watermelon_yellow_" data-name="watermelon (yellow)">
    <path class="cls-6" d="M309.93,15.03c.66,1.29,1.35,2.56,1.98,3.86,1.03,2.16,2.03,4.33,2.97,6.52,1.14,2.66,2.18,5.35,3.17,8.05.82,2.22,1.62,4.45,2.33,6.7.87,2.74,1.63,5.52,2.36,8.3.59,2.26,1.19,4.52,1.69,6.8.61,2.84,1.09,5.7,1.55,8.56.36,2.26.77,4.52,1.03,6.8.35,2.94.53,5.91.72,8.87.14,2.22.35,4.44.4,6.67.07,3.1-.06,6.21-.16,9.31-.07,2.11-.05,4.21-.21,6.32-.25,3.45-.73,6.89-1.2,10.33-.24,1.77-.37,3.54-.66,5.3-.88,5.2-1.99,10.39-3.37,15.55-11.41,42.59-38.67,78.18-76.76,100.2-32.84,18.99-69.54,25.24-104.47,20.41-.66-.09-1.32-.13-1.98-.23-3.89-.58-7.72-1.41-11.55-2.27-1.35-.3-2.71-.55-4.06-.88-3.57-.9-7.09-1.99-10.59-3.12-1.48-.48-2.97-.91-4.42-1.43-3.53-1.25-7.01-2.67-10.45-4.16-1.29-.56-2.59-1.09-3.86-1.68-3.49-1.62-6.91-3.39-10.29-5.25-1.16-.64-2.32-1.26-3.46-1.93-3.31-1.93-6.54-4-9.72-6.17-1.18-.8-2.36-1.61-3.52-2.44-2.96-2.13-5.84-4.4-8.67-6.74-1.32-1.1-2.63-2.2-3.92-3.34-2.52-2.22-4.96-4.55-7.36-6.94-1.48-1.48-2.94-2.99-4.37-4.54-2.06-2.23-4.06-4.53-6.01-6.89-1.57-1.9-3.1-3.83-4.58-5.81-1.68-2.23-3.31-4.52-4.89-6.86-.74-1.1-1.44-2.25-2.16-3.37L309.93,15.03Z"/>
    <path class="cls-5" d="M311.44,15.03c.66,1.29,1.35,2.56,1.98,3.86,1.03,2.16,2.03,4.33,2.97,6.52,1.14,2.66,2.18,5.35,3.17,8.05.82,2.22,1.62,4.45,2.33,6.7.87,2.74,1.63,5.52,2.36,8.3.59,2.26,1.19,4.52,1.69,6.8.61,2.84,1.09,5.7,1.55,8.56.36,2.26.77,4.52,1.03,6.8.35,2.94.53,5.91.72,8.87.14,2.22.35,4.44.4,6.67.07,3.1-.06,6.21-.16,9.31-.07,2.11-.05,4.21-.21,6.32-.25,3.45-.73,6.89-1.2,10.33-.24,1.77-.37,3.54-.66,5.3-.88,5.2-1.99,10.39-3.37,15.55-11.41,42.59-38.67,78.18-76.76,100.2-32.84,18.99-69.54,25.24-104.47,20.41-.66-.09-1.32-.13-1.98-.23-3.89-.58-7.72-1.41-11.55-2.27-1.35-.3-2.71-.55-4.06-.88-3.57-.9-7.09-1.99-10.59-3.12-1.48-.48-2.97-.91-4.42-1.43-3.53-1.25-7.01-2.67-10.45-4.16-1.29-.56-2.59-1.09-3.86-1.68-3.49-1.62-6.91-3.39-10.29-5.25-1.16-.64-2.32-1.26-3.46-1.93-3.31-1.93-6.54-4-9.72-6.17-1.18-.8-2.36-1.61-3.52-2.44-2.96-2.13-5.84-4.4-8.67-6.74-1.32-1.1-2.63-2.2-3.92-3.34-2.52-2.22-4.96-4.55-7.36-6.94-1.48-1.48-2.94-2.99-4.37-4.54-2.06-2.23-4.06-4.53-6.01-6.89-1.57-1.9-3.1-3.83-4.58-5.81-1.68-2.23-3.31-4.52-4.89-6.86-.74-1.1-1.44-2.25-2.16-3.37L311.44,15.03Z"/>
  </g>
  <g id="watermelon_red_" data-name="watermelon (red)">
    <path class="cls-2" d="M279.33,31.84c.53,1.03,1.09,2.05,1.59,3.09.83,1.73,1.63,3.46,2.38,5.21.91,2.13,1.75,4.27,2.55,6.43.66,1.78,1.3,3.55,1.88,5.35.7,2.19,1.31,4.41,1.9,6.63.47,1.81.96,3.61,1.36,5.43.49,2.27.87,4.55,1.25,6.84.29,1.81.62,3.61.83,5.43.28,2.35.43,4.72.58,7.09.11,1.78.28,3.55.32,5.33.06,2.48-.04,4.96-.13,7.44-.06,1.68-.04,3.36-.16,5.05-.2,2.75-.58,5.5-.96,8.26-.19,1.41-.29,2.83-.53,4.24-.7,4.16-1.59,8.31-2.69,12.43-9.12,34.05-30.96,62.5-61.48,80.12-26.32,15.19-55.74,20.21-83.74,16.37-.53-.07-1.06-.1-1.59-.18-3.12-.46-6.19-1.12-9.26-1.8-1.08-.24-2.17-.43-3.25-.7-2.86-.71-5.68-1.58-8.49-2.49-1.18-.38-2.38-.73-3.55-1.14-2.83-1-5.62-2.13-8.38-3.32-1.03-.44-2.08-.87-3.1-1.34-2.8-1.29-5.54-2.71-8.25-4.19-.93-.51-1.86-1.01-2.78-1.54-2.65-1.54-5.24-3.2-7.79-4.93-.95-.64-1.89-1.28-2.82-1.95-2.38-1.7-4.69-3.51-6.96-5.38-1.06-.88-2.11-1.76-3.15-2.67-2.02-1.77-3.98-3.63-5.9-5.54-1.19-1.19-2.36-2.39-3.5-3.62-1.66-1.78-3.26-3.62-4.83-5.5-1.26-1.52-2.49-3.06-3.68-4.64-1.35-1.78-2.66-3.61-3.93-5.48-.6-.88-1.15-1.79-1.73-2.69L279.33,31.84Z"/>
    <path class="cls-4" d="M280.54,31.84c.53,1.03,1.09,2.05,1.59,3.09.83,1.73,1.63,3.46,2.38,5.21.91,2.13,1.75,4.27,2.55,6.43.66,1.78,1.3,3.55,1.88,5.35.7,2.19,1.31,4.41,1.9,6.63.47,1.81.96,3.61,1.36,5.43.49,2.27.87,4.55,1.25,6.84.29,1.81.62,3.61.83,5.43.28,2.35.43,4.72.58,7.09.11,1.78.28,3.55.32,5.33.06,2.48-.04,4.96-.13,7.44-.06,1.68-.04,3.36-.16,5.05-.2,2.75-.58,5.5-.96,8.26-.19,1.41-.29,2.83-.53,4.24-.7,4.16-1.59,8.31-2.69,12.43-9.12,34.05-30.96,62.5-61.48,80.12-26.32,15.19-55.74,20.21-83.74,16.37-.53-.07-1.06-.1-1.59-.18-3.12-.46-6.19-1.12-9.26-1.8-1.08-.24-2.17-.43-3.25-.7-2.86-.71-5.68-1.58-8.49-2.49-1.18-.38-2.38-.73-3.55-1.14-2.83-1-5.62-2.13-8.38-3.32-1.03-.44-2.08-.87-3.1-1.34-2.8-1.29-5.54-2.71-8.25-4.19-.93-.51-1.86-1.01-2.78-1.54-2.65-1.54-5.24-3.2-7.79-4.93-.95-.64-1.89-1.28-2.82-1.95-2.38-1.7-4.69-3.51-6.96-5.38-1.06-.88-2.11-1.76-3.15-2.67-2.02-1.77-3.98-3.63-5.9-5.54-1.19-1.19-2.36-2.39-3.5-3.62-1.66-1.78-3.26-3.62-4.83-5.5-1.26-1.52-2.49-3.06-3.68-4.64-1.35-1.78-2.66-3.61-3.93-5.48-.6-.88-1.15-1.79-1.73-2.69L280.54,31.84Z"/>
    <path d="M225.04,185.78l-9.9-17.14c-1.83-3.16-5.85-4.24-9.01-2.42-3.16,1.82-4.24,5.86-2.42,9.01l9.9,17.14c1.22,2.12,3.44,3.3,5.72,3.3,1.12,0,2.25-.28,3.29-.88,3.16-1.82,4.24-5.86,2.42-9.01Z"/>
    <path d="M135.09,179c-3.54-.97-7.14,1.15-8.08,4.67l-4.83,18.03c-.94,3.52,1.15,7.14,4.66,8.08.57.15,1.15.23,1.71.23,2.92,0,5.58-1.95,6.37-4.89l4.83-18.03c.94-3.52-1.15-7.14-4.66-8.08Z"/>
    <path d="M278.82,111.26l-18.02-4.83c-3.51-.94-7.14,1.15-8.08,4.67-.94,3.52,1.14,7.14,4.66,8.08l18.02,4.83c.57.15,1.15.23,1.71.23,2.91,0,5.58-1.95,6.37-4.89.94-3.52-1.14-7.14-4.67-8.08Z"/>
  </g>
</svg>